<?xml version="1.0"?>
<!--Icons from directory ""-->
<svg xmlns="http://www.w3.org/2000/svg" width="176" height="208" viewBox="0 0 176 208"><svg xmlns:xlink="http://www.w3.org/1999/xlink" id="rodeo" xml:space="preserve" height="208" viewBox="0 0 176 208" width="176" version="1.1" y="0" x="0px" enable-background="new 0 0 176 208">	<path d="m118.79 71.663c0 17.115-9.035 24.248-25.681 24.248h-40.888v-47.79h40.892c16.647 0.003 25.677 7.136 25.677 23.542m42.32 117.22c-6.656-9.515-6.416-29.483-7.131-40.19-1.189-17.115-6.422-34.95-24.726-39.702v-0.475c18.778-7.614 26.864-22.59 26.864-42.562 0-25.681-19.259-46.841-49.692-46.841h-91.534v169.77h37.332v-66.338h37.329c18.784 0 25.675 7.843 28.294 25.673 1.901 13.552 1.427 29.964 5.944 40.665h37.329z"/></svg></svg>
